<?xml version="1.0" encoding="utf-8"?>
<!-- Generator: Adobe Illustrator 16.0.0, SVG Export Plug-In . SVG Version: 6.00 Build 0)  -->
<!DOCTYPE svg PUBLIC "-//W3C//DTD SVG 1.1//EN" "http://www.w3.org/Graphics/SVG/1.1/DTD/svg11.dtd">
<svg version="1.1" id="Layer_1" xmlns="http://www.w3.org/2000/svg" xmlns:xlink="http://www.w3.org/1999/xlink" x="0px" y="0px"
	 width="159.141px" height="50.761px" viewBox="0 0 159.141 50.761" enable-background="new 0 0 159.141 50.761"
	 xml:space="preserve">
<g>
	<g>
		<path fill="#005B9A" d="M59.382,39.522l-0.401,1.5H56.16l3.222-10.393h3.355l3.222,10.393h-2.865l-0.416-1.5H59.382z
			 M61.431,34.964c-0.267-0.994-0.386-1.47-0.371-1.455H61c0.015-0.015-0.104,0.461-0.371,1.44l-0.579,2.094h1.96L61.431,34.964z"/>
	</g>
	<g>
		<path fill="#005B9A" d="M71.91,37.652h-0.653v3.37H68.54V30.629h3.89c1.203,0,2.153,0.326,2.821,0.979
			c0.668,0.639,0.995,1.5,0.995,2.584c0,1.41-0.549,2.375-1.633,2.895l2.034,3.935h-3.147L71.91,37.652z M72.489,35.469
			c0.668,0,1.01-0.386,1.01-1.173s-0.342-1.173-1.01-1.173h-1.232v2.346H72.489z"/>
	</g>
	<g>
		<path fill="#005B9A" d="M88.001,37.994c-0.326,0.979-0.861,1.752-1.589,2.315c-0.786,0.609-1.736,0.921-2.851,0.921
			c-1.439,0-2.583-0.46-3.444-1.381c-0.906-0.965-1.366-2.316-1.366-4.054c0-1.707,0.46-3.028,1.366-3.993
			c0.861-0.921,2.019-1.381,3.474-1.381c1.113,0,2.063,0.282,2.82,0.847c0.728,0.534,1.232,1.262,1.515,2.197l-2.643,0.712
			c-0.416-0.786-1.024-1.188-1.826-1.188c-1.307,0-1.96,0.936-1.96,2.806c0,1.916,0.653,2.866,1.96,2.866
			c0.921,0,1.559-0.461,1.9-1.381L88.001,37.994z"/>
	</g>
	<g>
		<path fill="#005B9A" d="M96.386,37.087h-2.939v3.935h-2.717V30.629h2.717v3.815h2.939v-3.815h2.717v10.393h-2.717V37.087z"/>
		<path fill="#005B9A" d="M102.158,30.629h2.717v10.393h-2.717V30.629z"/>
	</g>
	<g>
		<path fill="#005B9A" d="M113.07,33.168v7.854h-2.702v-7.854h-2.688v-2.539h8.077v2.539H113.07z"/>
	</g>
	<g>
		<path fill="#005B9A" d="M118.561,30.629h7.067v2.539h-4.351v1.439h3.147v2.346h-3.147v1.529h4.425v2.539h-7.142V30.629z"/>
	</g>
	<g>
		<path fill="#005B9A" d="M137.295,37.994c-0.326,0.979-0.861,1.752-1.589,2.315c-0.786,0.609-1.736,0.921-2.851,0.921
			c-1.439,0-2.583-0.46-3.444-1.381c-0.905-0.965-1.365-2.316-1.365-4.054c0-1.707,0.46-3.028,1.365-3.993
			c0.861-0.921,2.02-1.381,3.475-1.381c1.113,0,2.063,0.282,2.82,0.847c0.728,0.534,1.232,1.262,1.515,2.197l-2.643,0.712
			c-0.416-0.786-1.024-1.188-1.826-1.188c-1.307,0-1.96,0.936-1.96,2.806c0,1.916,0.653,2.866,1.96,2.866
			c0.921,0,1.559-0.461,1.9-1.381L137.295,37.994z"/>
		<path fill="#005B9A" d="M145.131,33.168v7.854h-2.702v-7.854h-2.688v-2.539h8.077v2.539H145.131z"/>
	</g>
	<g>
		<path fill="#005B9A" d="M152.894,37.726c0.193,0.713,0.698,1.069,1.5,1.069c0.727,0,1.083-0.253,1.083-0.743
			c0-0.312-0.207-0.549-0.608-0.712c-0.134-0.045-0.342-0.119-0.653-0.208c-0.371-0.104-0.639-0.179-0.816-0.237
			c-0.847-0.282-1.484-0.609-1.915-0.995c-0.639-0.579-0.965-1.366-0.965-2.346c0-0.995,0.326-1.782,0.994-2.331
			c0.653-0.534,1.574-0.802,2.747-0.802c2.212,0,3.533,0.921,3.979,2.776l-2.598,0.697c-0.179-0.697-0.639-1.054-1.396-1.054
			c-0.639,0-0.951,0.223-0.951,0.683c0,0.313,0.179,0.55,0.55,0.728c0.163,0.074,0.668,0.238,1.544,0.49
			c0.861,0.253,1.515,0.564,1.945,0.965c0.608,0.564,0.905,1.337,0.905,2.316c0,2.138-1.262,3.207-3.801,3.207
			c-2.331,0-3.712-0.936-4.143-2.807L152.894,37.726z"/>
	</g>
	<path fill="#005B9A" d="M69.05,25.586V12.967v-0.505h1.814v-1.374h-6.547v1.346c0.531,0.041,1.027,0.112,1.522,0.107
		c0.46-0.004,0.547,0.261,0.551,0.615c0.008,0.72,0.002,1.44,0.002,2.202h-5.615v-2.895h1.799v-1.368h-6.564v1.379
		c0.243,0,0.461-0.005,0.678,0.001c0.234,0.008,0.471,0.007,0.702,0.044c0.67,0.109,0.671,0.116,0.671,0.813
		c0.001,4.192,0.001,8.384-0.001,12.575c0,0.158-0.017,0.316-0.029,0.512H56.28v1.302h6.512v-1.277
		c-0.482-0.037-0.934-0.074-1.385-0.106c-0.595-0.042-0.653-0.1-0.654-0.681v-8.251v-0.43h5.613v9.442H64.65v1.298h6.433v-1.274
		c-0.476-0.037-0.913-0.073-1.351-0.104C69.111,26.294,69.05,26.23,69.05,25.586"/>
	<path fill="#005B9A" d="M118.165,16.355c-0.222-0.095-0.442-0.188-0.703-0.298c0.087-0.077,0.128-0.115,0.17-0.152
		c1.289-1.111,1.309-3.448-0.831-4.237c-1.036-0.382-2.111-0.49-3.193-0.503c-2.396-0.029-4.793-0.009-7.189-0.009h-0.452v1.338
		c0.339,0.017,0.645,0.033,0.953,0.046c0.881,0.037,1.049-0.117,1.051,1.199c0.005,3.999,0.002,7.999,0.002,11.998v0.522h-1.837
		v1.234c0.127,0.01,0.214,0.025,0.301,0.024c2.853-0.011,5.706,0.031,8.555-0.056c2.049-0.062,3.921-0.714,5.497-2.105
		c1.623-1.433,2.177-3.95,1.222-5.885C120.958,17.951,119.687,17.006,118.165,16.355 M110.646,12.614
		c1.451-0.002,2.901-0.353,4.292,0.309c0.448,0.213,0.865,0.482,0.848,1.064c-0.021,0.645-0.348,1.046-1.034,1.261
		c-0.308,0.095-0.628,0.181-0.945,0.188c-1.039,0.023-2.08,0.009-3.16,0.009V12.614z M117.965,24.625
		c-1.463,1.297-3.22,1.682-5.114,1.604c-0.629-0.026-1.257-0.109-1.886-0.159c-0.222-0.018-0.342-0.086-0.341-0.345
		c0.007-2.895,0.004-5.791,0.004-8.721c0.974,0,1.896-0.034,2.815,0.008c1.361,0.062,2.686,0.311,3.871,1.034
		c1.093,0.667,1.933,1.543,2.132,2.866C119.677,22.428,119.078,23.637,117.965,24.625"/>
	<path fill="#005B9A" d="M157.763,26.151c-0.57-0.04-0.628-0.104-0.628-0.659V13.003V12.55h1.739v-1.359h-6.396v1.33
		c0.553,0.042,1.08,0.061,1.6,0.136c0.146,0.021,0.378,0.202,0.383,0.317c0.033,0.802,0.017,1.606,0.017,2.417h-5.473v-2.843h1.732
		v-1.357h-6.409v1.379c0.396,0,0.763-0.019,1.127,0.004c0.842,0.055,0.904,0.13,0.904,0.974v12.136v0.522h-1.813v1.288h6.493v-0.547
		v-0.719c-0.423-0.024-0.8-0.054-1.179-0.066c-0.835-0.028-0.892-0.079-0.893-0.917c-0.001-2.618-0.001-5.237,0.001-7.855
		c0-0.142,0.016-0.283,0.026-0.433h5.469v9.254h-1.703v1.277h6.38v-1.266C158.667,26.199,158.214,26.183,157.763,26.151"/>
	<path fill="#005B9A" d="M138.453,12.566c0.248,0,0.468-0.012,0.684,0.002c0.808,0.055,1.203,0.428,1.262,1.226
		c0.024,0.305-0.025,0.614-0.025,0.922c-0.007,2.235-0.007,4.47-0.009,6.705c-0.001,0.359-0.001,0.719-0.001,1.078
		c-0.181-0.088-0.265-0.197-0.335-0.313c-0.979-1.594-1.957-3.188-2.934-4.783c-1.214-1.98-2.427-3.962-3.646-5.939
		c-0.075-0.123-0.215-0.291-0.325-0.293c-1.144-0.022-2.286-0.014-3.442-0.014v1.412c0.313,0,0.592-0.016,0.869,0.003
		c1.051,0.076,1.334,0.383,1.334,1.431v11.646v0.55h-1.557v1.298h5.686v-1.273c-0.384-0.023-0.735-0.039-1.086-0.068
		c-0.731-0.061-1.013-0.317-1.14-1.033c-0.028-0.157-0.035-0.321-0.033-0.481c0.022-2.498,0.047-4.996,0.075-7.494
		c0-0.075,0.027-0.149,0.058-0.297c0.51,0.825,0.979,1.581,1.447,2.339c1.801,2.924,3.598,5.849,5.404,8.769
		c0.093,0.151,0.235,0.356,0.378,0.376c0.385,0.052,0.779,0.019,1.204,0.019V12.548h1.452v-1.356h-5.319V12.566z"/>
	<path fill="#005B9A" d="M85.812,12.422c-2.201-1.589-4.658-1.995-7.3-1.545c-3.602,0.614-7.15,3.92-7.283,8.054
		c-0.099,3.089,1.022,5.532,3.52,7.327c2.438,1.752,5.159,2.051,7.985,1.287c3.624-0.98,6.625-4.128,6.568-8.301
		C89.303,16.375,88.137,14.098,85.812,12.422 M86.543,20.236c-0.205,2.512-1.463,4.392-3.682,5.528
		c-2.612,1.335-5.619,0.486-7.422-1.951c-1.06-1.432-1.566-3.034-1.557-4.556c-0.006-2.511,0.794-4.424,2.542-5.873
		c1.966-1.629,5.116-1.593,7.234,0.076C85.844,15.183,86.768,17.481,86.543,20.236"/>
	<path fill="#005B9A" d="M103.485,25.375c-0.962-2.257-1.964-4.497-2.924-6.756c-1.124-2.643-2.223-5.297-3.322-7.951
		c-0.101-0.243-0.231-0.345-0.489-0.315c-0.16,0.018-0.327,0.024-0.484-0.001c-0.332-0.053-0.459,0.108-0.548,0.404
		c-0.584,1.941-1.18,3.879-1.775,5.816c-0.952,3.092-1.912,6.181-2.855,9.275c-0.084,0.275-0.206,0.381-0.492,0.36
		c-0.329-0.023-0.661-0.005-0.982-0.005v1.285h6.329v-1.234c-0.684-0.053-1.34-0.098-1.995-0.157
		c-0.74-0.067-0.899-0.21-0.667-1.032c0.696-2.454,1.486-4.88,2.256-7.312c0.032-0.105,0.221-0.217,0.345-0.227
		c0.365-0.03,0.736,0.018,1.101-0.019c0.355-0.036,0.517,0.104,0.645,0.421c0.706,1.76,1.431,3.512,2.15,5.267
		c0.401,0.978,0.803,1.957,1.234,3.004h-1.656v1.289h5.954v-1.218c-0.242-0.038-0.457-0.091-0.674-0.103
		C104.088,26.132,103.713,25.906,103.485,25.375 M95.975,15.211l0.245-0.95l0.521,0.95H95.975z"/>
	<path fill="#005B9A" d="M128.822,26.2c-0.189-0.007-0.38-0.031-0.569-0.038c-0.775-0.027-0.855-0.105-0.855-0.872
		c-0.001-4.088-0.001-8.176,0.001-12.264c0-0.142,0.014-0.284,0.023-0.468h1.7v-1.401h-3.205h-3.199v0.48v0.888
		c0.55,0.038,1.032,0.095,1.514,0.099c0.435,0.004,0.554,0.239,0.555,0.609c0,0.103,0.003,0.206,0.003,0.309v12.132v0.539h-1.772
		v1.271h6.408v-1.283C129.201,26.201,129.011,26.207,128.822,26.2"/>
	<path fill="#005B9A" d="M37.446,10.412c2.13,0,4.129,0.68,5.943,2.02c1.904,1.408,3.151,3.289,3.704,5.59
		c0.509,2.118,0.329,4.137-0.552,6.172c-0.531,1.226-1.318,2.329-2.34,3.277c-0.114,0.105-0.235,0.209-0.362,0.313
		c-1.872-0.991-3.859-1.534-5.928-1.618v-2.999c0.587-0.12,1.137-0.421,1.561-0.866c0.556-0.581,0.843-1.332,0.81-2.115
		c-0.066-1.557-1.385-2.829-2.952-2.835c-1.626,0-2.9,1.248-2.964,2.904c-0.003,0.085-0.003,0.171-0.002,0.257v0.071v3.192
		c0,5.111,0,10.222,0.004,15.333v0.035c0,0.372,0,0.834,0.152,1.315c0.348,1.1,1.247,1.845,2.406,1.994
		c0.147,0.02,0.295,0.029,0.438,0.029c1.05,0,1.937-0.5,2.497-1.407c0.605-0.98,0.6-2.101-0.015-3.075
		c-0.445-0.704-1.121-1.166-1.937-1.333v-6.959c0.131,0.003,0.246,0.01,0.354,0.019c1.071,0.092,2.103,0.35,3.067,0.767
		c1.471,0.639,2.678,1.522,3.689,2.702c1.126,1.315,1.834,2.757,2.165,4.407c0.395,1.971,0.22,3.827-0.534,5.675
		c-0.564,1.379-1.415,2.582-2.531,3.575c-1.518,1.351-3.277,2.177-5.227,2.457c-0.563,0.081-1.121,0.122-1.658,0.122
		c-2.236,0-4.294-0.713-6.116-2.119c-2.019-1.556-3.255-3.602-3.674-6.079c-0.097-0.574-0.147-1.166-0.148-1.76
		c-0.012-6.164-0.02-12.775-0.001-19.349c0.006-2.221,0.752-4.252,2.217-6.036c1.504-1.829,3.426-2.989,5.714-3.448
		C35.981,10.489,36.728,10.412,37.446,10.412 M37.446,9.081c-0.81,0-1.638,0.085-2.482,0.254c-2.612,0.524-4.783,1.844-6.48,3.909
		c-1.639,1.995-2.513,4.29-2.52,6.876c-0.018,6.452-0.011,12.904,0.001,19.356c0.001,0.66,0.057,1.328,0.167,1.979
		c0.482,2.848,1.899,5.158,4.173,6.911c2.088,1.611,4.411,2.396,6.929,2.396c0.605,0,1.22-0.045,1.847-0.136
		c2.255-0.322,4.228-1.271,5.922-2.779c1.269-1.129,2.234-2.488,2.879-4.066c0.852-2.086,1.049-4.232,0.607-6.438
		c-0.379-1.888-1.209-3.552-2.459-5.012c-1.152-1.346-2.549-2.354-4.171-3.058c-1.113-0.482-2.279-0.77-3.482-0.872
		c-0.223-0.019-0.448-0.025-0.673-0.025c-0.373,0-0.748,0.017-1.126,0.017v9.537c0.154,0,0.303-0.003,0.448-0.003
		c0.087,0,0.172,0.001,0.258,0.004c0.607,0.021,1.107,0.26,1.437,0.781c0.345,0.548,0.344,1.119,0.007,1.665
		c-0.322,0.522-0.796,0.775-1.364,0.775c-0.087,0-0.176-0.006-0.267-0.018c-0.644-0.083-1.111-0.453-1.308-1.075
		c-0.094-0.297-0.09-0.633-0.09-0.951c-0.005-6.175-0.004-12.349-0.004-18.524c0-0.092-0.003-0.185,0.001-0.277
		c0.036-0.935,0.731-1.624,1.634-1.624h0.008c0.865,0.003,1.579,0.722,1.614,1.561c0.038,0.89-0.73,1.647-1.603,1.65
		c-0.093,0-0.186,0.001-0.279,0.001c-0.163,0-0.326-0.001-0.49-0.001v5.615c0.258-0.016,0.514-0.022,0.767-0.022
		c2.366,0,4.559,0.641,6.62,1.904c0.377-0.311,0.776-0.607,1.139-0.943c1.14-1.058,2.037-2.293,2.656-3.724
		c0.982-2.268,1.202-4.61,0.625-7.012c-0.63-2.621-2.042-4.748-4.207-6.349C42.112,9.834,39.856,9.081,37.446,9.081"/>
	<path fill="#005B9A" d="M17.948,23.277l3.382,0.001l2.402,0.001v6.931l-2.189,0.001c-3.41,0-6.821,0.001-10.231,0.005
		c-1.115,0.001-2.057,0.563-2.586,1.543c-0.534,0.99-0.481,2.061,0.149,3.01c0.538,0.813,1.448,1.3,2.434,1.3
		c0.294,0,0.586-0.046,0.867-0.132c1.063-0.329,1.811-1.155,2.025-2.185h7.116c-0.131,2.104-0.879,3.995-2.226,5.624
		c-1.461,1.766-3.333,2.907-5.565,3.394c-0.775,0.168-1.544,0.253-2.287,0.253c-1.565,0-3.078-0.379-4.497-1.126
		c-2.843-1.498-4.594-3.813-5.204-6.88c-0.575-2.894,0.068-5.563,1.914-7.934c1.492-1.918,3.469-3.127,5.875-3.595
		c0.66-0.128,1.38-0.195,2.138-0.198C13.625,23.279,15.787,23.277,17.948,23.277 M17.948,21.946c-2.163,0-4.326,0.003-6.489,0.013
		c-0.797,0.004-1.605,0.071-2.386,0.223C6.349,22.71,4.102,24.081,2.4,26.265c-2.072,2.662-2.829,5.691-2.168,9.013
		c0.702,3.529,2.718,6.126,5.889,7.795c1.639,0.864,3.353,1.28,5.117,1.28c0.846,0,1.703-0.097,2.57-0.283
		c2.538-0.554,4.652-1.844,6.308-3.847c1.584-1.916,2.434-4.13,2.54-6.619c0.017-0.392,0.003-0.783,0.003-1.184h-9.728
		c0,0.254,0.001,0.492,0,0.731c-0.004,0.711-0.448,1.295-1.149,1.512c-0.156,0.048-0.316,0.073-0.474,0.073
		c-0.523,0-1.028-0.255-1.325-0.704c-0.349-0.527-0.388-1.084-0.086-1.644c0.3-0.557,0.784-0.843,1.416-0.843
		c4.473-0.005,8.947-0.005,13.421-0.006h0.107h0.221v-9.592h-0.349C22.458,21.949,20.203,21.946,17.948,21.946"/>
	<path fill="#005B9A" d="M21.374,4.559v15.162H14.29c-0.001-3.51-0.001-7.021,0-10.532c0-1.076,0.3-1.866,0.943-2.486
		c0.611-0.589,1.352-0.92,2.266-1.012c0.156-0.015,0.313-0.027,0.469-0.038c0.623-0.045,1.33-0.097,2.058-0.383
		C20.517,5.076,20.967,4.839,21.374,4.559 M22.705,0c-0.073,0.141-0.094,0.284-0.125,0.426c-0.378,1.737-1.376,2.95-3.041,3.605
		c-0.701,0.276-1.442,0.263-2.172,0.336c-1.171,0.117-2.209,0.559-3.058,1.378c-0.971,0.936-1.35,2.121-1.35,3.444
		c-0.001,3.855-0.001,7.709,0,11.564c0,0.097,0.01,0.194,0.016,0.299h9.73V0z"/>
	<path fill="#005B9A" d="M48.989,11.586c1.561-0.018,2.813-1.228,2.815-2.756c0.002-1.54-1.263-2.806-2.815-2.793
		c-1.637,0.015-2.841,1.351-2.788,2.78C46.145,10.342,47.497,11.604,48.989,11.586 M49.002,6.355
		c1.379,0.003,2.478,1.104,2.476,2.478c-0.003,1.342-1.129,2.451-2.487,2.449c-1.346-0.003-2.47-1.114-2.488-2.459
		C46.486,7.483,47.632,6.352,49.002,6.355"/>
	<path fill="#005B9A" d="M48.161,9.056c0.547-0.128,0.919,0.048,1.162,0.513c0.08,0.154,0.19,0.293,0.277,0.445
		c0.178,0.314,0.221,0.333,0.658,0.217c-0.314-0.428-0.616-0.839-0.925-1.261c0.055-0.02,0.151-0.052,0.245-0.09
		c0.377-0.151,0.543-0.423,0.505-0.823c-0.035-0.379-0.248-0.645-0.649-0.673c-0.548-0.039-1.101-0.01-1.656-0.01v2.875h0.383V9.056
		z M48.173,7.698c0.376,0,0.742-0.015,1.106,0.006c0.227,0.012,0.362,0.159,0.376,0.399c0.014,0.249-0.032,0.49-0.316,0.53
		c-0.377,0.052-0.762,0.052-1.166,0.076V7.698z"/>
</g>
</svg>
