<?xml version="1.0" encoding="UTF-8"?>
<svg id="Layer_1" xmlns="http://www.w3.org/2000/svg" version="1.1" viewBox="0 0 296.05 74.09">
  <!-- Generator: Adobe Illustrator 29.8.3, SVG Export Plug-In . SVG Version: 2.1.1 Build 3)  -->
  <defs>
    <style>
      .st0 {
        fill: #1a365d;
      }

      .st1 {
        fill: #6aa9d8;
      }
    </style>
  </defs>
  <g>
    <polygon class="st1" points="51.39 3.69 51.39 21.62 40.82 26.26 40.82 26.26 33.7 23.8 22.78 20.01 33.7 13.77 51.39 3.69"/>
    <polygon class="st1" points="83.73 34.69 63.2 25.67 63.2 41.26 63.2 48.63 84.2 54.38 84.2 67.61 63.2 64.77 53.13 63.41 53.13 63.41 52.75 63.36 52.75 2.97 63.2 8.99 84.2 21.1 84.2 34.89 83.73 34.69"/>
    <polygon class="st1" points="21.3 20.85 21.3 34.83 15.86 37.22 10.54 35.88 -.28 33.15 21.3 20.85"/>
    <polygon class="st0" points="21.3 59.28 21.3 67.97 10.54 69.51 -.28 71.06 -.28 33.15 10.54 35.88 15.86 37.22 10.54 39.56 10.54 57.22 10.54 57.29 21.3 59.28"/>
    <polygon class="st1" points="21.3 54.05 21.3 59.28 10.54 57.29 10.54 57.22 21.3 54.05"/>
    <polygon class="st1" points="51.39 44.78 51.39 53.99 33.7 50.72 33.7 50.28 51.39 44.78"/>
    <polygon class="st0" points="51.39 53.99 51.39 63.66 33.7 66.19 22.77 67.76 22.77 20.01 22.78 20.01 33.7 23.8 40.82 26.26 33.7 29.38 33.7 50.7 33.7 50.72 51.39 53.99"/>
    <polygon class="st0" points="84.2 34.89 63.2 41.26 63.2 25.67 84.2 34.89"/>
  </g>
  <g>
    <path class="st0" d="M125.85,51.77c.43,0,.8.16,1.09.47l3.1,3.31c-1.53,1.95-3.43,3.42-5.69,4.43-2.27,1.01-4.96,1.51-8.09,1.51-2.83,0-5.38-.48-7.64-1.45-2.26-.96-4.18-2.31-5.76-4.03-1.58-1.72-2.8-3.76-3.65-6.12-.85-2.36-1.28-4.94-1.28-7.74,0-1.88.2-3.66.61-5.36.41-1.69,1-3.25,1.79-4.68.78-1.42,1.72-2.71,2.83-3.86,1.1-1.15,2.35-2.12,3.74-2.93,1.39-.81,2.91-1.42,4.55-1.85,1.64-.43,3.39-.64,5.25-.64,1.39,0,2.71.12,3.95.37,1.24.24,2.4.58,3.48,1.02,1.08.43,2.07.96,2.98,1.58.91.62,1.73,1.29,2.46,2.02l-2.63,3.6c-.16.23-.36.43-.6.6-.24.17-.57.26-.99.26s-.84-.15-1.26-.44c-.43-.3-.95-.63-1.56-.99-.62-.36-1.39-.69-2.32-.99-.93-.3-2.11-.44-3.53-.44-1.58,0-3.03.29-4.35.86-1.32.57-2.45,1.4-3.4,2.49-.95,1.09-1.68,2.42-2.2,4-.52,1.58-.78,3.38-.78,5.39s.28,3.84.85,5.43c.56,1.59,1.34,2.93,2.32,4.03.98,1.09,2.13,1.92,3.44,2.49,1.31.56,2.71.85,4.21.85.89,0,1.69-.04,2.41-.13.72-.09,1.39-.23,2.01-.44.62-.21,1.2-.48,1.75-.81.55-.33,1.1-.75,1.65-1.25.19-.16.39-.29.6-.39.21-.1.43-.16.68-.16Z"/>
    <path class="st0" d="M160.67,51.77c.43,0,.8.16,1.09.47l3.1,3.31c-1.53,1.95-3.43,3.42-5.69,4.43-2.27,1.01-4.96,1.51-8.09,1.51-2.83,0-5.38-.48-7.64-1.45-2.26-.96-4.18-2.31-5.76-4.03-1.58-1.72-2.8-3.76-3.65-6.12-.85-2.36-1.28-4.94-1.28-7.74,0-1.88.2-3.66.61-5.36.41-1.69,1-3.25,1.79-4.68.78-1.42,1.72-2.71,2.83-3.86,1.1-1.15,2.35-2.12,3.74-2.93,1.39-.81,2.91-1.42,4.55-1.85,1.64-.43,3.39-.64,5.25-.64,1.39,0,2.71.12,3.95.37,1.24.24,2.4.58,3.48,1.02,1.08.43,2.07.96,2.98,1.58.91.62,1.73,1.29,2.46,2.02l-2.63,3.6c-.16.23-.36.43-.6.6-.24.17-.57.26-.99.26s-.84-.15-1.26-.44c-.43-.3-.95-.63-1.56-.99-.62-.36-1.39-.69-2.32-.99-.93-.3-2.11-.44-3.53-.44-1.58,0-3.03.29-4.35.86-1.32.57-2.45,1.4-3.4,2.49-.95,1.09-1.68,2.42-2.2,4-.52,1.58-.78,3.38-.78,5.39s.28,3.84.85,5.43c.56,1.59,1.34,2.93,2.32,4.03.98,1.09,2.13,1.92,3.44,2.49,1.31.56,2.71.85,4.21.85.89,0,1.69-.04,2.41-.13.72-.09,1.39-.23,2.01-.44.62-.21,1.2-.48,1.75-.81.55-.33,1.1-.75,1.65-1.25.19-.16.39-.29.6-.39.21-.1.43-.16.68-.16Z"/>
    <path class="st0" d="M194.19,54.21c.25,0,.46.1.65.3l1.79,1.93c-1.36,1.58-3.01,2.81-4.95,3.69-1.94.88-4.29,1.32-7.04,1.32-2.38,0-4.55-.41-6.49-1.24-1.95-.83-3.61-1.99-4.99-3.48-1.38-1.49-2.44-3.28-3.2-5.37-.76-2.09-1.14-4.38-1.14-6.89s.39-4.8,1.18-6.89c.79-2.09,1.9-3.88,3.33-5.38,1.43-1.5,3.14-2.66,5.14-3.49,1.99-.83,4.2-1.24,6.61-1.24s4.45.38,6.26,1.14c1.81.76,3.4,1.79,4.78,3.08l-1.48,2.06c-.09.15-.21.28-.36.38-.15.1-.34.15-.59.15-.28,0-.62-.15-1.02-.45-.4-.3-.93-.64-1.58-1.01-.65-.37-1.46-.71-2.44-1.01-.97-.3-2.17-.45-3.59-.45-1.72,0-3.29.3-4.71.89-1.42.6-2.65,1.46-3.68,2.59-1.03,1.13-1.83,2.5-2.4,4.13-.57,1.62-.86,3.46-.86,5.5s.3,3.92.89,5.54c.6,1.62,1.41,3,2.44,4.12,1.03,1.12,2.24,1.98,3.64,2.56,1.4.59,2.91.88,4.53.88.99,0,1.88-.06,2.68-.17.8-.12,1.53-.3,2.2-.54.67-.25,1.3-.56,1.88-.94.58-.38,1.16-.83,1.73-1.36.26-.23.53-.35.79-.35Z"/>
    <path class="st0" d="M233.06,44.47c0,2.49-.39,4.77-1.18,6.85-.79,2.08-1.9,3.87-3.34,5.37-1.44,1.5-3.17,2.66-5.18,3.49-2.02.83-4.25,1.24-6.69,1.24s-4.67-.41-6.68-1.24c-2.01-.83-3.73-1.99-5.17-3.49-1.44-1.5-2.55-3.29-3.34-5.37-.79-2.08-1.18-4.36-1.18-6.85s.39-4.77,1.18-6.85c.79-2.08,1.9-3.87,3.34-5.38,1.44-1.51,3.16-2.68,5.17-3.51,2.01-.83,4.24-1.25,6.68-1.25s4.67.42,6.69,1.25c2.02.84,3.75,2.01,5.18,3.51,1.44,1.51,2.55,3.3,3.34,5.38.79,2.08,1.18,4.36,1.18,6.85ZM228.44,44.47c0-2.04-.28-3.87-.83-5.5-.56-1.62-1.35-3-2.37-4.12-1.02-1.12-2.26-1.98-3.71-2.59-1.45-.6-3.08-.9-4.87-.9s-3.39.3-4.85.9c-1.45.6-2.69,1.47-3.72,2.59-1.03,1.12-1.82,2.49-2.38,4.12-.56,1.62-.83,3.46-.83,5.5s.28,3.87.83,5.49c.56,1.62,1.35,2.98,2.38,4.11,1.03,1.12,2.27,1.98,3.72,2.57,1.45.6,3.07.89,4.85.89s3.42-.3,4.87-.89c1.45-.6,2.69-1.45,3.71-2.57,1.02-1.12,1.81-2.49,2.37-4.11.56-1.62.83-3.44.83-5.49Z"/>
    <path class="st0" d="M267.57,27.84v33.24h-2.25c-.36,0-.65-.06-.89-.19-.24-.12-.48-.33-.71-.63l-19.23-25.05c.03.39.05.77.07,1.14.02.37.02.72.02,1.04v23.68h-3.94V27.84h2.32c.2,0,.37.01.51.03s.26.06.37.12c.11.05.22.13.32.23.11.1.22.23.35.38l19.23,25.03c-.03-.4-.06-.79-.08-1.17-.02-.38-.03-.74-.03-1.08v-23.54h3.94Z"/>
    <path class="st0" d="M294.22,33.03c-.14.23-.29.41-.45.52-.16.12-.36.17-.59.17-.26,0-.57-.13-.93-.39-.36-.26-.8-.55-1.33-.87-.53-.32-1.18-.61-1.92-.87-.75-.26-1.66-.39-2.73-.39-1.01,0-1.89.14-2.66.41s-1.41.64-1.92,1.1c-.52.46-.91,1.01-1.17,1.63-.26.63-.39,1.3-.39,2.03,0,.93.23,1.7.68,2.31.46.61,1.06,1.13,1.81,1.57.75.43,1.6.81,2.55,1.12.95.32,1.92.65,2.92.99,1,.34,1.97.72,2.92,1.15.95.43,1.8.96,2.55,1.61.75.65,1.35,1.45,1.81,2.39.46.94.68,2.1.68,3.48,0,1.45-.25,2.82-.74,4.09-.49,1.28-1.22,2.39-2.17,3.33-.95.94-2.12,1.69-3.5,2.23-1.38.54-2.96.81-4.72.81-2.16,0-4.13-.39-5.89-1.17-1.76-.78-3.27-1.84-4.52-3.17l1.3-2.13c.12-.17.27-.31.45-.43.18-.12.37-.17.59-.17.2,0,.43.08.68.24.26.16.54.37.87.61.32.25.7.52,1.11.81.42.29.89.56,1.43.81.53.25,1.14.45,1.82.61.68.16,1.45.24,2.3.24,1.07,0,2.02-.15,2.85-.44.83-.29,1.54-.71,2.12-1.24s1.02-1.17,1.33-1.91c.31-.74.46-1.57.46-2.48,0-1-.23-1.83-.68-2.47-.46-.64-1.06-1.18-1.8-1.61-.74-.43-1.59-.8-2.55-1.1-.96-.3-1.93-.61-2.92-.93-.99-.32-1.96-.68-2.92-1.1-.96-.42-1.81-.96-2.55-1.62-.74-.66-1.34-1.5-1.8-2.49-.46-1-.68-2.23-.68-3.7,0-1.17.23-2.31.68-3.41.46-1.1,1.12-2.07,1.99-2.92.87-.85,1.95-1.53,3.22-2.04,1.28-.51,2.74-.77,4.4-.77,1.86,0,3.54.29,5.07.88,1.52.59,2.86,1.44,4.02,2.55l-1.09,2.13Z"/>
  </g>
</svg>